<svg xmlns="http://www.w3.org/2000/svg" width="112.77547mm" height="105.83332mm" viewBox="0 0 112.77548 105.83332"><defs><filter id="a" width="1.5067277" height="3.9293856" x="-.25336387" y="-1.4646928" style="color-interpolation-filters:sRGB"><feGaussianBlur stdDeviation="7.9015599"/></filter></defs><path d="M108.05635 52.916673a51.66874 51.668677 0 0 1-51.668743 51.668667A51.66874 51.668677 0 0 1 4.7188653 52.916673 51.66874 51.668677 0 0 1 56.387607 1.2479937 51.66874 51.668677 0 0 1 108.05635 52.916673Z" style="fill:#4d4d4d;stroke:#4d4d4d;stroke-width:2.49598"/><path d="M11.761524 8.2907194h43.451201V51.741921H11.761524Z" style="color:#000;display:inline;fill:#000;stroke-width:1.06458;-inkscape-stroke:none" transform="translate(-.000004614 .000003695)"/><path d="M-387.73616 645.62531h15.89901v.0227h-15.89901z" style="color:#000;fill:#4d4d4d;stroke-width:.770395;-inkscape-stroke:none" transform="translate(420.51189 -630.50189)"/><path d="M-388.76372 644.5972v2.07796h17.95379v-2.07796zm1.02756 6.98093h15.89901v.0226h-15.89901z" style="color:#000;fill:#4d4d4d;stroke-width:.770395;-inkscape-stroke:none" transform="translate(420.51189 -630.50189)"/><path d="M-388.76372 650.5497v2.07946h17.95379v-2.07946zm1.02756 6.98226h15.89901v.0226h-15.89901z" style="color:#000;fill:#4d4d4d;stroke-width:.770395;-inkscape-stroke:none" transform="translate(420.51189 -630.50189)"/><path d="M-388.76372 656.50371v2.07795h17.95379v-2.07795zm1.02756 6.97969h15.89901v.0226h-15.89901z" style="color:#000;fill:#4d4d4d;stroke-width:.770395;-inkscape-stroke:none" transform="translate(420.51189 -630.50189)"/><path d="M-388.76372 662.4562v2.07795h17.95379v-2.07795zm1.02756 6.98037h15.89901v.0226h-15.89901z" style="color:#000;fill:#4d4d4d;stroke-width:.770395;-inkscape-stroke:none" transform="translate(420.51189 -630.50189)"/><path d="M-388.76372 668.40869v2.07796h17.95379v-2.07796zm1.02756 6.98022h15.89901v.0226h-15.89901z" style="color:#000;fill:#4d4d4d;stroke-width:.770395;-inkscape-stroke:none" transform="translate(420.51189 -630.50189)"/><path d="M-388.76372 674.36119v2.07796h17.95379v-2.07796z" style="color:#000;fill:#4d4d4d;stroke-width:.770395;-inkscape-stroke:none" transform="translate(420.51189 -630.50189)"/><path d="M-402.21917 645.61681h8.93242v.0397h-8.93242z" style="color:#000;fill:#4d4d4d;stroke-width:.770395;-inkscape-stroke:none" transform="translate(420.51187761 -630.50189)"/><path d="M-403.23852 644.5972v2.07796h10.97059v-2.07796zm1.01935 6.97243h8.93242v.0397h-8.93242z" style="color:#000;fill:#4d4d4d;stroke-width:.770395;-inkscape-stroke:none" transform="translate(420.51187761 -630.50189)"/><path d="M-403.23852 650.5497v2.07946h10.97059v-2.07946zm1.01935 6.97375h8.93242v.0397h-8.93242z" style="color:#000;fill:#4d4d4d;stroke-width:.770395;-inkscape-stroke:none" transform="translate(420.51187761 -630.50189)"/><path d="M-403.23852 656.50371v2.07795h10.97059v-2.07795zm1.01935 6.97118h8.93242v.0397h-8.93242z" style="color:#000;fill:#4d4d4d;stroke-width:.770395;-inkscape-stroke:none" transform="translate(420.51187761 -630.50189)"/><path d="M-403.23852 662.4562v2.07795h10.97059v-2.07795zm1.01935 6.97186h8.93242v.0397h-8.93242z" style="color:#000;fill:#4d4d4d;stroke-width:.770395;-inkscape-stroke:none" transform="translate(420.51187761 -630.50189)"/><path d="M-403.23852 668.40869v2.07796h10.97059v-2.07796zm1.01935 6.97171h8.93242v.0397h-8.93242z" style="color:#000;fill:#4d4d4d;stroke-width:.770395;-inkscape-stroke:none" transform="translate(420.51187761 -630.50189)"/><path d="M-403.23852 674.36119v2.07796h10.97059v-2.07796z" style="color:#000;fill:#4d4d4d;stroke-width:.770395;-inkscape-stroke:none" transform="translate(420.51187761 -630.50189)"/><path d="M-455.22796 638.79283h43.45115v43.4512h-43.45115z" style="color:#000;display:inline;fill:#000;stroke-width:1.06458;-inkscape-stroke:none" transform="translate(512.791 -630.3474)"/><path d="m-428.65612 671.90212-4.19947-6.70561h2.47227v-15.40934h3.52213v15.40934h2.43841zm-11.65015 0v-15.37548h-2.47227l4.23334-6.73947 4.19947 6.73947h-2.4384v15.37548z" aria-label="тоБ" style="font-weight:700;font-size:33.8667px;font-family:'Noto Sans';-inkscape-font-specification:'Noto Sans Bold';fill:#fff;stroke-width:.264583" transform="translate(512.791 -630.3474)"/><path d="M-455.2281 684.59353h89.25206v43.4512h-89.25206z" style="color:#000;display:inline;fill:#000;stroke-width:1.0691;-inkscape-stroke:none" transform="translate(466.99017 -630.5021)"/><path d="M-443.96063 712.79259q-.3587 0-.70031-.10249-.34162-.0854-.63199-.29037-.29037-.22205-.49534-.51242-.20497-.29037-.34162-.63199v1.40062h-1.89596v-12.55436h1.89596v5.07299q.13665-.34162.34162-.63199.20497-.29037.49534-.49534.29037-.22205.63199-.30746.34161-.10248.70031-.10248.40994 0 .80279.13664.40994.11957.7174.39286.32453.25621.5295.63199.22205.3587.34162.75156.11956.39285.15372.81987.0512.40994.0512.81988v2.04969q0 .40994-.0512.83696-.0342.40993-.15372.80279-.11957.39286-.34162.76864-.20497.35869-.5295.63199-.30746.25621-.7174.37577-.39285.13665-.80279.13665zm-.78572-1.63975q.34162 0 .64907-.15373.32454-.17081.51243-.4441.18788-.29037.25621-.63199.0683-.34162.0683-.68323v-2.04969q0-.34162-.0683-.68323-.0683-.34162-.25621-.61491-.18789-.29037-.51243-.4441-.30745-.17081-.64907-.17081-.22205 0-.4441.0683-.20497.0683-.37577.22205-.17081.13665-.29038.34162-.10248.18789-.1708.40994-.0512.20497-.0854.42702-.0171.22205-.0171.44409v2.0497q0 .22205.0171.4441.0342.22205.0854.4441.0683.20497.1708.40994.11957.18788.29038.34161.1708.13665.37577.20497.22205.0683.4441.0683zm7.48138 1.63975q-.34162 0-.66615-.0683-.32454-.0512-.61491-.22205-.29037-.17081-.51242-.42702-.20497-.27329-.34162-.56367-.11956-.30745-.1708-.63198-.0512-.34162-.0512-.66615 0-.46118.10248-.90528.11957-.44411.37578-.8028.27329-.3587.64907-.59783.39285-.25621.81987-.39286.42702-.15372.87112-.20496.46118-.0683.90528-.0683h1.04193v-.58075q0-.29037-.0854-.54658-.0854-.2733-.29037-.46118-.18789-.20497-.46118-.29038-.27329-.0854-.56367-.0854-.23913 0-.49534.0683-.23913.0512-.4441.20497-.20497.15373-.32453.39286-.10249.23913-.10249.47826h-1.89596q0-.39286.10248-.78571.11957-.39286.34162-.73448.22205-.34161.54658-.59782.32454-.25622.70031-.39286.37578-.15373.76864-.20497.40994-.0683.80279-.0683.42702 0 .85404.0683.42702.0512.8028.22205.39286.17081.71739.46118.32453.27329.5295.64907.22205.35869.30746.78571.0854.40994.0854.83696v5.99535h-1.89596v-1.3323q-.0854.17081-.11957.22205-.0171.0342-.0683.11956-.0512.0683-.11957.15373-.0512.0683-.11956.13665-.0512.0683-.11957.13664l-.13665.13665q-.0683.0512-.15372.10249-.0683.0512-.15373.10248-.0683.0512-.15373.10248-.0854.0342-.1708.0683-.0854.0342-.18789.0512-.0854.0342-.17081.0512-.0854.0342-.18789.0342-.0854.0171-.18789.0171-.0854.0171-.18789.0171-.0854.0171-.1708.0171zm.76863-1.63975q.32454 0 .63199-.0854.32454-.10249.54658-.32454.23914-.22205.34162-.5295.11957-.30746.11957-.63199v-.70031h-1.04193q-.20497 0-.40994.0171-.18789.0171-.39286.0683-.18789.0512-.37577.13664-.18789.0683-.34162.20497-.15373.13665-.23913.32454-.0683.18789-.0683.39285 0 .23914.0854.46118.0854.22205.25621.39286.18789.15373.40994.22205.23913.0512.47826.0512zm5.55125 1.5031v-8.88199h1.89597v1.40062q.13664-.34162.34161-.63199.20497-.29037.47826-.49534.29037-.22205.63199-.30746.34161-.10248.70031-.10248.40994 0 .8028.13664.39285.13665.68323.40994.30745.2733.49534.64907.18789.3587.29037.75156.11957.39285.15373.80279.0512.39286.0512.8028v5.46584h-1.89597v-5.46584q0-.22205-.0342-.4441-.0171-.22205-.0854-.42702-.0512-.22205-.17081-.40994-.10248-.18789-.27329-.34161-.15373-.15373-.37578-.22205-.20497-.0683-.42702-.0683t-.4441.0683q-.20497.0683-.37578.22205-.15372.15372-.27329.34161-.10248.18789-.1708.40994-.0512.20497-.0854.42702-.0171.22205-.0171.4441v5.46584zm11.00001.13665q-.40994 0-.81988-.13665-.39285-.11956-.71739-.37577-.30745-.2733-.5295-.63199-.20497-.37578-.32454-.76864-.11956-.39285-.1708-.80279-.0342-.42702-.0342-.83696v-2.04969q0-.40994.0342-.81988.0512-.42702.1708-.81987.11957-.39286.32454-.75156.22205-.37578.5295-.63199.32454-.27329.71739-.39286.40994-.13664.81988-.13664.3587 0 .70031.10248.34162.0854.63199.30746.29037.20497.49534.49534.20497.29037.34162.63199v-5.07299h1.89596v12.55436h-1.89596v-1.40062q-.13665.34162-.34162.63199-.20497.29037-.49534.51242-.29037.20497-.63199.29037-.34161.10249-.70031.10249zm.78572-1.63975q.22205 0 .42701-.0683.22205-.0683.39286-.20497.17081-.15373.27329-.34162.11957-.20497.17081-.40994.0683-.22205.0854-.4441.0342-.22205.0342-.4441v-2.04969q0-.22205-.0342-.4441-.0171-.22205-.0854-.42702-.0512-.22205-.17081-.40994-.10248-.20496-.27329-.34161-.17081-.15373-.39286-.22205-.20496-.0683-.42701-.0683-.34162 0-.66615.17081-.30746.15372-.49535.4441-.18788.27329-.25621.6149-.0683.34162-.0683.68323v2.0497q0 .34161.0683.68323.0683.34161.25621.63199.18789.27329.49535.4441.32453.15372.66615.15372zm6.14907 1.5031-1.46894-8.88199h1.91304l.42702 7.03727.78572-4.54348h1.5031l.78572 4.54348.42702-7.03727h1.91304l-1.46894 8.88199h-1.52019l-.8882-4.49224-.8882 4.49224zm7.68635 0v-12.55436h1.89596v5.07299q.13665-.34162.34162-.63199.20497-.29037.47826-.49534.29037-.22205.63199-.30746.34161-.10248.70031-.10248.40994 0 .80279.13664.39286.13665.68323.40994.30746.2733.49535.64907.18788.3587.29037.75156.11956.39285.15373.80279.0512.39286.0512.8028v5.46584h-1.89596v-5.46584q0-.22205-.0342-.4441-.0171-.22205-.0854-.42702-.0512-.22205-.1708-.40994-.10249-.18789-.2733-.34161-.15372-.15373-.37577-.22205-.20497-.0683-.42702-.0683t-.4441.0683q-.20497.0683-.37578.22205-.15373.15372-.27329.34161-.10249.18789-.17081.40994-.0512.20497-.0854.42702-.0171.22205-.0171.4441v5.46584zm8.81367 0v-1.63975h2.15217v-5.60249h-1.91304v-1.63975h3.82609v7.24224h1.91304v1.63975zm2.98913-10.07765q-.27329 0-.54658-.0854-.2733-.0854-.46118-.27329-.18789-.18789-.2733-.46118-.0854-.27329-.0854-.54659 0-.27329.0854-.54658t.2733-.46118q.18788-.18789.46118-.27329.27329-.0854.54658-.0854t.54659.0854q.27329.0854.46118.27329.18788.18789.27329.46118.0854.27329.0854.54658 0 .2733-.0854.54659-.0854.27329-.27329.46118-.18789.18789-.46118.27329-.2733.0854-.54659.0854zm8.48914 10.2143q-.46118 0-.92236-.0854t-.87112-.30746q-.39286-.23913-.71739-.58074-.30745-.3587-.51242-.76864-.18789-.42702-.25622-.8882-.0683-.46118-.0683-.92236v-2.04969q0-.46118.0683-.92236t.25622-.87112q.20497-.42702.51242-.76863.32453-.3587.71739-.58075.40994-.23913.87112-.32453.46118-.0854.92236-.0854.4441 0 .87112.0854.4441.0683.83696.25621.39285.18789.70031.49534.32453.30745.5295.70031.20497.37578.30746.81988.10248.42702.10248.85404v.0342h-1.89596v-.0171q0-.30746-.10249-.59783-.0854-.29037-.27329-.5295-.18789-.23913-.47826-.34162-.29037-.11956-.59783-.11956-.34161 0-.64907.1708-.30745.15373-.49534.4441-.17081.27329-.23913.61491-.0683.34162-.0683.68323v2.04969q0 .34162.0683.68323.0683.34162.23913.63199.18789.27329.49534.4441.30746.15373.64907.15373.30746 0 .59783-.10249.29037-.11956.47826-.35869t.27329-.52951q.10249-.29037.10249-.59782v-.0171h1.89596v.0342q0 .42702-.10248.87112-.10249.42701-.30746.81987-.20497.37578-.5295.68323-.30746.30746-.70031.49534-.39286.18789-.83696.25622-.42702.0854-.87112.0854zm5.3292-.13665v-12.55436h1.89596v5.07299q.13665-.34162.34162-.63199.20497-.29037.47826-.49534.29037-.22205.63199-.30746.34161-.10248.70031-.10248.40994 0 .8028.13664.39285.13665.68323.40994.30745.2733.49534.64907.18789.3587.29037.75156.11957.39285.15373.80279.0512.39286.0512.8028v5.46584h-1.89597v-5.46584q0-.22205-.0342-.4441-.0171-.22205-.0854-.42702-.0512-.22205-.17081-.40994-.10248-.18789-.27329-.34161-.15373-.15373-.37578-.22205-.20497-.0683-.42702-.0683t-.4441.0683q-.20497.0683-.37577.22205-.15373.15372-.2733.34161-.10248.18789-.1708.40994-.0512.20497-.0854.42702-.0171.22205-.0171.4441v5.46584z" aria-label="bandwhich" style="-inkscape-font-specification:'Iosevka Nerd Font Mono, Bold';display:inline;fill:#fff;stroke-width:.42702" transform="translate(466.99017 -630.5021)"/><path d="M-443.96064 712.7926q-.3587 0-.70031-.10249-.34162-.0854-.63199-.29037-.29037-.22205-.49534-.51242-.20497-.29037-.34162-.63199v1.40062h-1.89596v-12.55436h1.89596v5.07299q.13665-.34162.34162-.63199.20497-.29037.49534-.49534.29037-.22205.63199-.30746.34161-.10248.70031-.10248.40994 0 .80279.13664.40994.11957.7174.39286.32453.25621.5295.63199.22205.3587.34162.75156.11956.39285.15372.81987.0512.40994.0512.81988v2.04969q0 .40994-.0512.83696-.0342.40993-.15372.80279-.11957.39286-.34162.76864-.20497.35869-.5295.63199-.30746.25621-.7174.37577-.39285.13665-.80279.13665zm-.78572-1.63975q.34162 0 .64907-.15373.32454-.17081.51243-.4441.18788-.29037.25621-.63199.0683-.34162.0683-.68323v-2.04969q0-.34162-.0683-.68323-.0683-.34162-.25621-.61491-.18789-.29037-.51243-.4441-.30745-.17081-.64907-.17081-.22205 0-.4441.0683-.20497.0683-.37577.22205-.17081.13665-.29038.34162-.10248.18789-.1708.40994-.0512.20497-.0854.42702-.0171.22205-.0171.44409v2.0497q0 .22205.0171.4441.0342.22205.0854.4441.0683.20497.1708.40994.11957.18788.29038.34161.1708.13665.37577.20497.22205.0683.4441.0683zm7.48138 1.63975q-.34162 0-.66615-.0683-.32454-.0512-.61491-.22205-.29037-.17081-.51242-.42702-.20497-.27329-.34162-.56367-.11956-.30745-.1708-.63198-.0512-.34162-.0512-.66615 0-.46118.10248-.90528.11957-.44411.37578-.8028.27329-.3587.64907-.59783.39285-.25621.81987-.39286.42702-.15372.87112-.20496.46118-.0683.90528-.0683h1.04193v-.58075q0-.29037-.0854-.54658-.0854-.2733-.29037-.46118-.18789-.20497-.46118-.29038-.27329-.0854-.56367-.0854-.23913 0-.49534.0683-.23913.0512-.4441.20497-.20497.15373-.32453.39286-.10249.23913-.10249.47826h-1.89596q0-.39286.10248-.78571.11957-.39286.34162-.73448.22205-.34161.54658-.59782.32454-.25622.70031-.39286.37578-.15373.76864-.20497.40994-.0683.80279-.0683.42702 0 .85404.0683.42702.0512.8028.22205.39286.17081.71739.46118.32453.27329.5295.64907.22205.35869.30746.78571.0854.40994.0854.83696v5.99535h-1.89596v-1.3323q-.0854.17081-.11957.22205-.0171.0342-.0683.11956-.0512.0683-.11957.15373-.0512.0683-.11956.13665-.0512.0683-.11957.13664l-.13665.13665q-.0683.0512-.15372.10249-.0683.0512-.15373.10248-.0683.0512-.15373.10248-.0854.0342-.1708.0683-.0854.0342-.18789.0512-.0854.0342-.17081.0512-.0854.0342-.18789.0342-.0854.0171-.18789.0171-.0854.0171-.18789.0171-.0854.0171-.1708.0171zm.76863-1.63975q.32454 0 .63199-.0854.32454-.10249.54658-.32454.23914-.22205.34162-.5295.11957-.30746.11957-.63199v-.70031h-1.04193q-.20497 0-.40994.0171-.18789.0171-.39286.0683-.18789.0512-.37577.13664-.18789.0683-.34162.20497-.15373.13665-.23913.32454-.0683.18789-.0683.39285 0 .23914.0854.46118.0854.22205.25621.39286.18789.15373.40994.22205.23913.0512.47826.0512zm5.55125 1.5031v-8.88199h1.89597v1.40062q.13664-.34162.34161-.63199.20497-.29037.47826-.49534.29037-.22205.63199-.30746.34161-.10248.70031-.10248.40994 0 .8028.13664.39285.13665.68323.40994.30745.2733.49534.64907.18789.3587.29037.75156.11957.39285.15373.80279.0512.39286.0512.8028v5.46584h-1.89597v-5.46584q0-.22205-.0342-.4441-.0171-.22205-.0854-.42702-.0512-.22205-.17081-.40994-.10248-.18789-.27329-.34161-.15373-.15373-.37578-.22205-.20497-.0683-.42702-.0683t-.4441.0683q-.20497.0683-.37578.22205-.15372.15372-.27329.34161-.10248.18789-.1708.40994-.0512.20497-.0854.42702-.0171.22205-.0171.4441v5.46584zm11.00001.13665q-.40994 0-.81988-.13665-.39285-.11956-.71739-.37577-.30745-.2733-.5295-.63199-.20497-.37578-.32454-.76864-.11956-.39285-.1708-.80279-.0342-.42702-.0342-.83696v-2.04969q0-.40994.0342-.81988.0512-.42702.1708-.81987.11957-.39286.32454-.75156.22205-.37578.5295-.63199.32454-.27329.71739-.39286.40994-.13664.81988-.13664.3587 0 .70031.10248.34162.0854.63199.30746.29037.20497.49534.49534.20497.29037.34162.63199v-5.07299h1.89596v12.55436h-1.89596v-1.40062q-.13665.34162-.34162.63199-.20497.29037-.49534.51242-.29037.20497-.63199.29037-.34161.10249-.70031.10249zm.78572-1.63975q.22205 0 .42701-.0683.22205-.0683.39286-.20497.17081-.15373.27329-.34162.11957-.20497.17081-.40994.0683-.22205.0854-.4441.0342-.22205.0342-.4441v-2.04969q0-.22205-.0342-.4441-.0171-.22205-.0854-.42702-.0512-.22205-.17081-.40994-.10248-.20496-.27329-.34161-.17081-.15373-.39286-.22205-.20496-.0683-.42701-.0683-.34162 0-.66615.17081-.30746.15372-.49535.4441-.18788.27329-.25621.6149-.0683.34162-.0683.68323v2.0497q0 .34161.0683.68323.0683.34161.25621.63199.18789.27329.49535.4441.32453.15372.66615.15372zm6.14907 1.5031-1.46894-8.88199h1.91304l.42702 7.03727.78572-4.54348h1.5031l.78572 4.54348.42702-7.03727h1.91304l-1.46894 8.88199h-1.52019l-.8882-4.49224-.8882 4.49224zm7.68635 0v-12.55436h1.89596v5.07299q.13665-.34162.34162-.63199.20497-.29037.47826-.49534.29037-.22205.63199-.30746.34161-.10248.70031-.10248.40994 0 .80279.13664.39286.13665.68323.40994.30746.2733.49535.64907.18788.3587.29037.75156.11956.39285.15373.80279.0512.39286.0512.8028v5.46584h-1.89596v-5.46584q0-.22205-.0342-.4441-.0171-.22205-.0854-.42702-.0512-.22205-.1708-.40994-.10249-.18789-.2733-.34161-.15372-.15373-.37577-.22205-.20497-.0683-.42702-.0683t-.4441.0683q-.20497.0683-.37578.22205-.15373.15372-.27329.34161-.10249.18789-.17081.40994-.0512.20497-.0854.42702-.0171.22205-.0171.4441v5.46584zm8.81367 0v-1.63975h2.15217v-5.60249h-1.91304v-1.63975h3.82609v7.24224h1.91304v1.63975zm2.98913-10.07765q-.27329 0-.54658-.0854-.2733-.0854-.46118-.27329-.18789-.18789-.2733-.46118-.0854-.27329-.0854-.54659 0-.27329.0854-.54658t.2733-.46118q.18788-.18789.46118-.27329.27329-.0854.54658-.0854t.54659.0854q.27329.0854.46118.27329.18788.18789.27329.46118.0854.27329.0854.54658 0 .2733-.0854.54659-.0854.27329-.27329.46118-.18789.18789-.46118.27329-.2733.0854-.54659.0854zm8.48914 10.2143q-.46118 0-.92236-.0854t-.87112-.30746q-.39286-.23913-.71739-.58074-.30745-.3587-.51242-.76864-.18789-.42702-.25622-.8882-.0683-.46118-.0683-.92236v-2.04969q0-.46118.0683-.92236t.25622-.87112q.20497-.42702.51242-.76863.32453-.3587.71739-.58075.40994-.23913.87112-.32453.46118-.0854.92236-.0854.4441 0 .87112.0854.4441.0683.83696.25621.39285.18789.70031.49534.32453.30745.5295.70031.20497.37578.30746.81988.10248.42702.10248.85404v.0342h-1.89596v-.0171q0-.30746-.10249-.59783-.0854-.29037-.27329-.5295-.18789-.23913-.47826-.34162-.29037-.11956-.59783-.11956-.34161 0-.64907.1708-.30745.15373-.49534.4441-.17081.27329-.23913.61491-.0683.34162-.0683.68323v2.04969q0 .34162.0683.68323.0683.34162.23913.63199.18789.27329.49534.4441.30746.15373.64907.15373.30746 0 .59783-.10249.29037-.11956.47826-.35869t.27329-.52951q.10249-.29037.10249-.59782v-.0171h1.89596v.0342q0 .42702-.10248.87112-.10249.42701-.30746.81987-.20497.37578-.5295.68323-.30746.30746-.70031.49534-.39286.18789-.83696.25622-.42702.0854-.87112.0854zm5.3292-.13665v-12.55436h1.89596v5.07299q.13665-.34162.34162-.63199.20497-.29037.47826-.49534.29037-.22205.63199-.30746.34161-.10248.70031-.10248.40994 0 .8028.13664.39285.13665.68323.40994.30745.2733.49534.64907.18789.3587.29037.75156.11957.39285.15373.80279.0512.39286.0512.8028v5.46584h-1.89597v-5.46584q0-.22205-.0342-.4441-.0171-.22205-.0854-.42702-.0512-.22205-.17081-.40994-.10248-.18789-.27329-.34161-.15373-.15373-.37578-.22205-.20497-.0683-.42702-.0683t-.4441.0683q-.20497.0683-.37577.22205-.15373.15372-.2733.34161-.10248.18789-.1708.40994-.0512.20497-.0854.42702-.0171.22205-.0171.4441v5.46584z" aria-label="bandwhich" style="-inkscape-font-specification:'Iosevka Nerd Font Mono, Bold';display:inline;fill:#fff;stroke-width:.42702;filter:url(#a)" transform="translate(466.99017 -630.5021)"/></svg>