<?xml version="1.0" encoding="UTF-8" standalone="no"?>
<!-- Created with Inkscape (http://www.inkscape.org/) -->

<svg
   width="112.77547mm"
   height="105.83332mm"
   viewBox="0 0 112.77548 105.83332"
   version="1.1"
   id="svg1"
   inkscape:version="1.3 (0e150ed6c4, 2023-07-21)"
   sodipodi:docname="bandwhich.svg"
   xmlns:inkscape="http://www.inkscape.org/namespaces/inkscape"
   xmlns:sodipodi="http://sodipodi.sourceforge.net/DTD/sodipodi-0.dtd"
   xmlns="http://www.w3.org/2000/svg"
   xmlns:svg="http://www.w3.org/2000/svg">
  <sodipodi:namedview
     id="namedview1"
     pagecolor="#ffffff"
     bordercolor="#eeeeee"
     borderopacity="1"
     inkscape:showpageshadow="0"
     inkscape:pageopacity="0"
     inkscape:pagecheckerboard="true"
     inkscape:deskcolor="#d1d1d1"
     inkscape:document-units="px"
     showborder="false"
     borderlayer="false"
     inkscape:zoom="1.4069592"
     inkscape:cx="187.28333"
     inkscape:cy="114.0758"
     inkscape:window-width="1920"
     inkscape:window-height="1005"
     inkscape:window-x="0"
     inkscape:window-y="0"
     inkscape:window-maximized="1"
     inkscape:current-layer="layer1" />
  <defs
     id="defs1">
    <inkscape:path-effect
       effect="powermask"
       id="path-effect502"
       is_visible="true"
       lpeversion="1"
       uri="#mask-powermask-path-effect502"
       invert="false"
       hide_mask="false"
       background="false"
       background_color="#ffffffff" />
    <inkscape:path-effect
       effect="powermask"
       id="path-effect130"
       is_visible="true"
       lpeversion="1"
       uri="#mask-powermask-path-effect130"
       invert="false"
       hide_mask="false"
       background="false"
       background_color="#ffffffff" />
    <filter
       id="mask-powermask-path-effect76_inverse"
       inkscape:label="filtermask-powermask-path-effect76"
       style="color-interpolation-filters:sRGB"
       height="100"
       width="100"
       x="-50"
       y="-50">
      <feColorMatrix
         id="mask-powermask-path-effect76_primitive1"
         values="1"
         type="saturate"
         result="fbSourceGraphic" />
      <feColorMatrix
         id="mask-powermask-path-effect76_primitive2"
         values="-1 0 0 0 1 0 -1 0 0 1 0 0 -1 0 1 0 0 0 1 0 "
         in="fbSourceGraphic" />
    </filter>
    <filter
       id="mask-powermask-path-effect94_inverse"
       inkscape:label="filtermask-powermask-path-effect94"
       style="color-interpolation-filters:sRGB"
       height="100"
       width="100"
       x="-50"
       y="-50">
      <feColorMatrix
         id="mask-powermask-path-effect94_primitive1"
         values="1"
         type="saturate"
         result="fbSourceGraphic" />
      <feColorMatrix
         id="mask-powermask-path-effect94_primitive2"
         values="-1 0 0 0 1 0 -1 0 0 1 0 0 -1 0 1 0 0 0 1 0 "
         in="fbSourceGraphic" />
    </filter>
    <filter
       id="mask-powermask-path-effect172_inverse"
       inkscape:label="filtermask-powermask-path-effect172"
       style="color-interpolation-filters:sRGB"
       height="100"
       width="100"
       x="-50"
       y="-50">
      <feColorMatrix
         id="mask-powermask-path-effect172_primitive1"
         values="1"
         type="saturate"
         result="fbSourceGraphic" />
      <feColorMatrix
         id="mask-powermask-path-effect172_primitive2"
         values="-1 0 0 0 1 0 -1 0 0 1 0 0 -1 0 1 0 0 0 1 0 "
         in="fbSourceGraphic" />
    </filter>
    <filter
       id="mask-powermask-path-effect361_inverse"
       inkscape:label="filtermask-powermask-path-effect361"
       style="color-interpolation-filters:sRGB"
       height="100"
       width="100"
       x="-50"
       y="-50">
      <feColorMatrix
         id="mask-powermask-path-effect361_primitive1"
         values="1"
         type="saturate"
         result="fbSourceGraphic" />
      <feColorMatrix
         id="mask-powermask-path-effect361_primitive2"
         values="-1 0 0 0 1 0 -1 0 0 1 0 0 -1 0 1 0 0 0 1 0 "
         in="fbSourceGraphic" />
    </filter>
    <filter
       id="mask-powermask-path-effect467_inverse"
       inkscape:label="filtermask-powermask-path-effect467"
       style="color-interpolation-filters:sRGB"
       height="100"
       width="100"
       x="-50"
       y="-50">
      <feColorMatrix
         id="mask-powermask-path-effect467_primitive1"
         values="1"
         type="saturate"
         result="fbSourceGraphic" />
      <feColorMatrix
         id="mask-powermask-path-effect467_primitive2"
         values="-1 0 0 0 1 0 -1 0 0 1 0 0 -1 0 1 0 0 0 1 0 "
         in="fbSourceGraphic" />
    </filter>
    <mask
       maskUnits="userSpaceOnUse"
       id="mask-powermask-path-effect502">
      <g
         id="g502">
        <path
           style="color:#000000;fill:#000000;-inkscape-stroke:none"
           d="m -89.53921,-108.33565 h 85.48962 v 39.689158 h -85.48962 z"
           id="path467" />
        <path
           style="color:#000000;fill:#000000;-inkscape-stroke:none"
           d="m -91.42059,-110.21646 v 1.88086 41.570319 h 89.25195 v -43.451179 z m 3.76172,3.76172 h 81.72851 v 35.927741 h -81.72851 z"
           id="path468" />
        <path
           style="color:#000000;fill:#000000;-inkscape-stroke:none"
           d="m -90.10229,-154.6992 h 40.81531 v 40.81531 h -40.81531 z"
           id="path469" />
        <path
           style="color:#000000;fill:#000000;-inkscape-stroke:none"
           d="m -91.42059,-156.01724 v 1.31836 42.13281 h 43.45117 v -43.45117 z m 2.63672,2.63672 h 38.17773 v 38.17774 h -38.17773 z"
           id="path470" />
        <path
           style="color:#000000;fill:#000000;-inkscape-stroke:none"
           d="m -44.30182,-154.6992 h 40.81531 v 40.81531 h -40.81531 z"
           id="path471" />
        <path
           style="color:#000000;fill:#000000;-inkscape-stroke:none"
           d="m -45.61981,-156.01724 v 1.31836 42.13281 h 43.45117 v -43.45117 z m 2.63672,2.63672 h 38.17773 v 38.17774 h -38.17773 z"
           id="path472" />
        <path
           style="color:#000000;fill:#4d4d4d;stroke-width:0.887714;-inkscape-stroke:none"
           d="m -40.62247,-151.46248 h 10.2927 v 0.0457 h -10.2927 z"
           id="path473" />
        <path
           style="color:#000000;fill:#4d4d4d;stroke-width:0.887714;-inkscape-stroke:none"
           d="m -41.79705,-152.63736 v 1.17552 1.21888 h 12.64125 v -2.3944 z"
           id="path474" />
        <path
           style="color:#000000;fill:#4d4d4d;stroke-width:0.887714;-inkscape-stroke:none"
           d="m -25.49587,-151.45268 h 18.3202 v 0.0261 h -18.3202 z"
           id="path475" />
        <path
           style="color:#000000;fill:#4d4d4d;stroke-width:0.887714;-inkscape-stroke:none"
           d="m -26.67991,-152.63736 v 1.18419 1.21021 h 20.68789 v -2.3944 z"
           id="path476" />
        <path
           style="color:#000000;fill:#4d4d4d;stroke-width:0.887714;-inkscape-stroke:none"
           d="m -40.62247,-145.74646 h 10.2927 v 0.0457 h -10.2927 z"
           id="path477" />
        <path
           style="color:#000000;fill:#4d4d4d;stroke-width:0.887714;-inkscape-stroke:none"
           d="m -41.79705,-146.9217 v 1.17553 1.2206 h 12.64125 v -2.39613 z"
           id="path478" />
        <path
           style="color:#000000;fill:#4d4d4d;stroke-width:0.887714;-inkscape-stroke:none"
           d="m -25.49587,-145.73666 h 18.3202 v 0.0261 h -18.3202 z"
           id="path479" />
        <path
           style="color:#000000;fill:#4d4d4d;stroke-width:0.887714;-inkscape-stroke:none"
           d="m -26.67991,-146.9217 v 1.1842 1.21193 h 20.68789 v -2.39613 z"
           id="path480" />
        <path
           style="color:#000000;fill:#4d4d4d;stroke-width:0.887714;-inkscape-stroke:none"
           d="m -40.62247,-140.03044 h 10.2927 v 0.0457 h -10.2927 z"
           id="path481" />
        <path
           style="color:#000000;fill:#4d4d4d;stroke-width:0.887714;-inkscape-stroke:none"
           d="m -41.79705,-141.20441 v 1.17379 1.22061 h 12.64125 v -2.3944 z"
           id="path482" />
        <path
           style="color:#000000;fill:#4d4d4d;stroke-width:0.887714;-inkscape-stroke:none"
           d="m -25.49587,-140.02063 h 18.3202 v 0.0261 h -18.3202 z"
           id="path483" />
        <path
           style="color:#000000;fill:#4d4d4d;stroke-width:0.887714;-inkscape-stroke:none"
           d="m -26.67991,-141.20441 v 1.18419 1.21021 h 20.68789 v -2.3944 z"
           id="path484" />
        <path
           style="color:#000000;fill:#4d4d4d;stroke-width:0.887714;-inkscape-stroke:none"
           d="m -40.62247,-134.31441 h 10.2927 v 0.0457 h -10.2927 z"
           id="path485" />
        <path
           style="color:#000000;fill:#4d4d4d;stroke-width:0.887714;-inkscape-stroke:none"
           d="m -41.79705,-135.48944 v 1.17553 1.21887 h 12.64125 v -2.3944 z"
           id="path486" />
        <path
           style="color:#000000;fill:#4d4d4d;stroke-width:0.887714;-inkscape-stroke:none"
           d="m -25.49587,-134.3046 h 18.3202 v 0.0261 h -18.3202 z"
           id="path487" />
        <path
           style="color:#000000;fill:#4d4d4d;stroke-width:0.887714;-inkscape-stroke:none"
           d="m -26.67991,-135.48944 v 1.1842 1.2102 h 20.68789 v -2.3944 z"
           id="path488" />
        <path
           style="color:#000000;fill:#4d4d4d;stroke-width:0.887714;-inkscape-stroke:none"
           d="m -40.62247,-128.59839 h 10.2927 v 0.0457 h -10.2927 z"
           id="path489" />
        <path
           style="color:#000000;fill:#4d4d4d;stroke-width:0.887714;-inkscape-stroke:none"
           d="m -41.79705,-129.77221 v 1.17379 1.2206 h 12.64125 v -2.39439 z"
           id="path490" />
        <path
           style="color:#000000;fill:#4d4d4d;stroke-width:0.887714;-inkscape-stroke:none"
           d="m -25.49587,-128.58858 h 18.3202 v 0.0261 h -18.3202 z"
           id="path491" />
        <path
           style="color:#000000;fill:#4d4d4d;stroke-width:0.887714;-inkscape-stroke:none"
           d="m -26.67991,-129.77221 v 1.18419 1.2102 h 20.68789 v -2.39439 z"
           id="path492" />
        <path
           style="color:#000000;fill:#4d4d4d;stroke-width:0.887714;-inkscape-stroke:none"
           d="m -40.62247,-122.88236 h 10.2927 v 0.0457 h -10.2927 z"
           id="path493" />
        <path
           style="color:#000000;fill:#4d4d4d;stroke-width:0.887714;-inkscape-stroke:none"
           d="m -41.79705,-124.05697 v 1.1738 1.2206 h 12.64125 v -2.3944 z"
           id="path494" />
        <path
           style="color:#000000;fill:#4d4d4d;stroke-width:0.887714;-inkscape-stroke:none"
           d="m -25.49587,-122.87256 h 18.3202 v 0.0261 h -18.3202 z"
           id="path495" />
        <path
           style="color:#000000;fill:#4d4d4d;stroke-width:0.887714;-inkscape-stroke:none"
           d="m -26.67991,-124.05697 v 1.1842 1.2102 h 20.68789 v -2.3944 z"
           id="path496" />
        <path
           style="color:#000000;fill:#4d4d4d;stroke-width:0.887714;-inkscape-stroke:none"
           d="m -40.62247,-117.16634 h 10.2927 v 0.0457 h -10.2927 z"
           id="path497" />
        <path
           style="color:#000000;fill:#4d4d4d;stroke-width:0.887714;-inkscape-stroke:none"
           d="m -41.79705,-118.34076 v 1.17379 1.22061 h 12.64125 v -2.3944 z"
           id="path498" />
        <path
           style="color:#000000;fill:#4d4d4d;stroke-width:0.887714;-inkscape-stroke:none"
           d="m -25.49587,-117.15654 h 18.3202 v 0.0261 h -18.3202 z"
           id="path499" />
        <path
           style="color:#000000;fill:#4d4d4d;stroke-width:0.887714;-inkscape-stroke:none"
           d="m -26.67991,-118.34076 v 1.1842 1.2102 h 20.68789 v -2.3944 z"
           id="path500" />
        <path
           d="m -77.06151,-131.08498 q 0,-0.65775 0.0329,-1.31551 0.0329,-0.65776 0.19733,-1.28263 0.19733,-0.65775 0.49332,-1.21685 0.32888,-0.59198 0.72353,-1.11818 0.39465,-0.52621 0.85508,-0.98664 0.46043,-0.49332 0.85509,-0.98663 0.42754,-0.52621 0.69064,-1.11819 0.29599,-0.62487 0.29599,-1.28262 0,-0.46043 -0.13155,-0.88798 -0.0987,-0.42754 -0.32888,-0.7893 -0.23021,-0.39466 -0.65775,-0.59199 -0.39466,-0.23021 -0.8222,-0.23021 -0.46043,0 -0.85508,0.23021 -0.39466,0.19733 -0.62487,0.5591 -0.23022,0.36176 -0.32888,0.78931 -0.0987,0.42754 -0.0987,0.85508 v 0.0658 h -4.50564 v -0.13155 q 0,-0.8222 0.19733,-1.64439 0.19733,-0.8222 0.59198,-1.54573 0.39465,-0.75642 0.98664,-1.31552 0.62486,-0.59198 1.38128,-0.95374 0.75642,-0.36177 1.57862,-0.49332 0.8222,-0.16444 1.67728,-0.16444 0.8222,0 1.64439,0.16444 0.85508,0.13155 1.6115,0.52621 0.75643,0.36176 1.34841,0.95374 0.62486,0.59198 1.01952,1.3484 0.39465,0.75642 0.59198,1.57862 0.19733,0.82219 0.19733,1.67728 0,0.65776 -0.13155,1.31551 -0.0987,0.62487 -0.36177,1.24974 -0.23021,0.59198 -0.55909,1.18396 -0.32888,0.5591 -0.75642,1.0853 -0.39466,0.49332 -0.85509,0.98663 -0.46043,0.46044 -0.82219,1.01953 -0.36177,0.5262 -0.52621,1.18396 -0.13155,0.62487 -0.13155,1.28263 z m 2.23638,9.14282 q -0.65776,0 -1.28263,-0.19733 -0.62487,-0.19732 -1.0853,-0.65775 -0.46043,-0.46043 -0.65775,-1.0853 -0.19733,-0.62487 -0.19733,-1.28263 0,-0.65775 0.19733,-1.28262 0.19732,-0.62487 0.65775,-1.0853 0.46043,-0.46043 1.0853,-0.65776 0.62487,-0.19733 1.28263,-0.19733 0.65775,0 1.28262,0.19733 0.62487,0.19733 1.0853,0.65776 0.46043,0.46043 0.65776,1.0853 0.19732,0.62487 0.19732,1.28262 0,0.65776 -0.19732,1.28263 -0.19733,0.62487 -0.65776,1.0853 -0.46043,0.46043 -1.0853,0.65775 -0.62487,0.19733 -1.28262,0.19733 z m 11.24763,-9.93213 v -14.50353 h 4.47275 v 14.50353 z m 2.23638,9.93213 q -0.65776,0 -1.28263,-0.19733 -0.62487,-0.19732 -1.0853,-0.65775 -0.46043,-0.46043 -0.65775,-1.0853 -0.19733,-0.62487 -0.19733,-1.28263 0,-0.65775 0.19733,-1.28262 0.19732,-0.62487 0.65775,-1.0853 0.46043,-0.46043 1.0853,-0.65776 0.62487,-0.19733 1.28263,-0.19733 0.65775,0 1.28262,0.19733 0.62487,0.19733 1.0853,0.65776 0.46043,0.46043 0.65776,1.0853 0.19732,0.62487 0.19732,1.28262 0,0.65776 -0.19732,1.28263 -0.19733,0.62487 -0.65776,1.0853 -0.46043,0.46043 -1.0853,0.65775 -0.62487,0.19733 -1.28262,0.19733 z"
           id="path501"
           style="-inkscape-font-specification:'Iosevka Nerd Font Mono, Heavy';fill:#ffffff;stroke-width:0.822198"
           aria-label="?!" />
        <path
           d="m -80.15318,-82.017452 q -0.3587,0 -0.70031,-0.102485 -0.34162,-0.08541 -0.63199,-0.290372 -0.29037,-0.222051 -0.49534,-0.512423 -0.20497,-0.290373 -0.34162,-0.631989 v 1.400623 h -1.89596 v -12.554361 h 1.89596 v 5.072987 q 0.13665,-0.341615 0.34162,-0.631988 0.20497,-0.290373 0.49534,-0.495343 0.29037,-0.22205 0.63199,-0.307453 0.34161,-0.102485 0.70031,-0.102485 0.40994,0 0.80279,0.136646 0.40994,0.119565 0.7174,0.392858 0.32453,0.256211 0.5295,0.631988 0.22205,0.358696 0.34162,0.751554 0.11956,0.392858 0.15372,0.819876 0.0512,0.409938 0.0512,0.819876 v 2.049693 q 0,0.409938 -0.0512,0.836957 -0.0342,0.409938 -0.15372,0.802795 -0.11957,0.392858 -0.34162,0.768635 -0.20497,0.358696 -0.5295,0.631988 -0.30746,0.256212 -0.7174,0.375777 -0.39285,0.136646 -0.80279,0.136646 z m -0.78572,-1.639753 q 0.34162,0 0.64907,-0.153727 0.32454,-0.170807 0.51243,-0.4441 0.18788,-0.290372 0.25621,-0.631988 0.0683,-0.341615 0.0683,-0.68323 v -2.049693 q 0,-0.341615 -0.0683,-0.68323 -0.0683,-0.341615 -0.25621,-0.614907 -0.18789,-0.290373 -0.51243,-0.4441 -0.30745,-0.170807 -0.64907,-0.170807 -0.22205,0 -0.4441,0.06833 -0.20497,0.06833 -0.37577,0.22205 -0.17081,0.136646 -0.29038,0.341615 -0.10248,0.187888 -0.1708,0.409938 -0.0512,0.20497 -0.0854,0.42702 -0.0171,0.22205 -0.0171,0.444099 v 2.049692 q 0,0.222049 0.0171,0.444099 0.0342,0.22205 0.0854,0.4441 0.0683,0.20497 0.1708,0.409939 0.11957,0.187889 0.29038,0.341615 0.1708,0.136646 0.37577,0.204969 0.22205,0.06833 0.4441,0.06833 z m 7.48138,1.639753 q -0.34162,0 -0.66615,-0.06833 -0.32454,-0.05124 -0.61491,-0.22205 -0.29037,-0.170808 -0.51242,-0.42702 -0.20497,-0.273291 -0.34162,-0.563664 -0.11956,-0.307454 -0.1708,-0.631989 -0.0512,-0.341615 -0.0512,-0.666149 0,-0.461181 0.10248,-0.905281 0.11957,-0.4441 0.37578,-0.802795 0.27329,-0.358697 0.64907,-0.597828 0.39285,-0.256211 0.81987,-0.392857 0.42702,-0.153727 0.87112,-0.204969 0.46118,-0.06833 0.90528,-0.06833 h 1.04193 v -0.580746 q 0,-0.290373 -0.0854,-0.546584 -0.0854,-0.273292 -0.29037,-0.461181 -0.18789,-0.204969 -0.46118,-0.290373 -0.27329,-0.08541 -0.56367,-0.08541 -0.23913,0 -0.49534,0.06833 -0.23913,0.05124 -0.4441,0.20497 -0.20497,0.153726 -0.32453,0.392857 -0.10249,0.239131 -0.10249,0.478261 h -1.89596 q 0,-0.392857 0.10248,-0.785715 0.11957,-0.392857 0.34162,-0.734473 0.22205,-0.341615 0.54658,-0.597826 0.32454,-0.256212 0.70031,-0.392858 0.37578,-0.153727 0.76864,-0.204969 0.40994,-0.06833 0.80279,-0.06833 0.42702,0 0.85404,0.06833 0.42702,0.05124 0.8028,0.22205 0.39286,0.170808 0.71739,0.46118 0.32453,0.273293 0.5295,0.64907 0.22205,0.358696 0.30746,0.785714 0.0854,0.409939 0.0854,0.836958 v 5.995348 h -1.89596 v -1.3323 q -0.0854,0.170808 -0.11957,0.22205 -0.0171,0.03416 -0.0683,0.119566 -0.0512,0.06832 -0.11957,0.153727 -0.0512,0.06833 -0.11956,0.136645 -0.0512,0.06833 -0.11957,0.136647 -0.0683,0.06833 -0.13665,0.136646 -0.0683,0.05124 -0.15372,0.102485 -0.0683,0.05124 -0.15373,0.102484 -0.0683,0.05124 -0.15373,0.102485 -0.0854,0.03416 -0.1708,0.06833 -0.0854,0.03416 -0.18789,0.05124 -0.0854,0.03416 -0.17081,0.05124 -0.0854,0.03416 -0.18789,0.03416 -0.0854,0.01708 -0.18789,0.01708 -0.0854,0.01708 -0.18789,0.01708 -0.0854,0.01708 -0.1708,0.01708 z m 0.76863,-1.639753 q 0.32454,0 0.63199,-0.08541 0.32454,-0.102485 0.54658,-0.324535 0.23914,-0.22205 0.34162,-0.529503 0.11957,-0.307455 0.11957,-0.631988 v -0.700312 h -1.04193 q -0.20497,0 -0.40994,0.01708 -0.18789,0.01708 -0.39286,0.06833 -0.18789,0.05124 -0.37577,0.136645 -0.18789,0.06833 -0.34162,0.20497 -0.15373,0.136646 -0.23913,0.324534 -0.0683,0.187889 -0.0683,0.392857 0,0.239132 0.0854,0.461181 0.0854,0.22205 0.25621,0.392857 0.18789,0.153728 0.40994,0.22205 0.23913,0.05124 0.47826,0.05124 z m 5.55125,1.503107 v -8.881997 h 1.89597 v 1.400623 q 0.13664,-0.341615 0.34161,-0.631988 0.20497,-0.290373 0.47826,-0.495343 0.29037,-0.22205 0.63199,-0.307453 0.34161,-0.102485 0.70031,-0.102485 0.40994,0 0.8028,0.136646 0.39285,0.136647 0.68323,0.409939 0.30745,0.273291 0.49534,0.649069 0.18789,0.358695 0.29037,0.751553 0.11957,0.392858 0.15373,0.802796 0.0512,0.392857 0.0512,0.802795 v 5.465845 h -1.89597 v -5.465845 q 0,-0.222049 -0.0342,-0.444099 -0.0171,-0.22205 -0.0854,-0.427019 -0.0512,-0.22205 -0.17081,-0.409938 -0.10248,-0.187888 -0.27329,-0.341616 -0.15373,-0.153727 -0.37578,-0.22205 -0.20497,-0.06833 -0.42702,-0.06833 -0.22205,0 -0.4441,0.06833 -0.20497,0.06833 -0.37578,0.22205 -0.15372,0.153728 -0.27329,0.341616 -0.10248,0.187888 -0.1708,0.409938 -0.0512,0.204969 -0.0854,0.427019 -0.0171,0.22205 -0.0171,0.444099 v 5.465845 z m 11.00001,0.136646 q -0.40994,0 -0.81988,-0.136646 -0.39285,-0.119565 -0.71739,-0.375777 -0.30745,-0.273292 -0.5295,-0.631988 -0.20497,-0.375777 -0.32454,-0.768635 -0.11956,-0.392857 -0.1708,-0.802795 -0.0342,-0.427019 -0.0342,-0.836957 v -2.049693 q 0,-0.409938 0.0342,-0.819876 0.0512,-0.427018 0.1708,-0.819876 0.11957,-0.392858 0.32454,-0.751554 0.22205,-0.375777 0.5295,-0.631988 0.32454,-0.273293 0.71739,-0.392858 0.40994,-0.136646 0.81988,-0.136646 0.3587,0 0.70031,0.102485 0.34162,0.08541 0.63199,0.307453 0.29037,0.20497 0.49534,0.495343 0.20497,0.290373 0.34162,0.631988 v -5.072987 h 1.89596 v 12.554361 h -1.89596 v -1.400623 q -0.13665,0.341616 -0.34162,0.631989 -0.20497,0.290372 -0.49534,0.512423 -0.29037,0.204969 -0.63199,0.290372 -0.34161,0.102485 -0.70031,0.102485 z m 0.78572,-1.639753 q 0.22205,0 0.42701,-0.06833 0.22205,-0.06833 0.39286,-0.204969 0.17081,-0.153726 0.27329,-0.341615 0.11957,-0.204969 0.17081,-0.409938 0.0683,-0.22205 0.0854,-0.4441 0.0342,-0.22205 0.0342,-0.4441 v -2.049692 q 0,-0.222049 -0.0342,-0.444099 -0.0171,-0.22205 -0.0854,-0.42702 -0.0512,-0.22205 -0.17081,-0.409938 -0.10248,-0.204969 -0.27329,-0.341615 -0.17081,-0.153727 -0.39286,-0.22205 -0.20496,-0.06833 -0.42701,-0.06833 -0.34162,0 -0.66615,0.170807 -0.30746,0.153727 -0.49535,0.4441 -0.18788,0.273292 -0.25621,0.614907 -0.0683,0.341615 -0.0683,0.683231 v 2.049692 q 0,0.341615 0.0683,0.68323 0.0683,0.341616 0.25621,0.631989 0.18789,0.273292 0.49535,0.4441 0.32453,0.153726 0.66615,0.153726 z m 6.14907,1.503107 -1.46894,-8.881997 h 1.91304 l 0.42702,7.037274 0.78572,-4.543483 h 1.5031 l 0.78572,4.543483 0.42702,-7.037274 h 1.91304 l -1.46894,8.881997 h -1.52019 l -0.8882,-4.49224 -0.8882,4.49224 z m 7.68635,0 v -12.554361 h 1.89596 v 5.072987 q 0.13665,-0.341615 0.34162,-0.631988 0.20497,-0.290373 0.47826,-0.495343 0.29037,-0.22205 0.63199,-0.307453 0.34161,-0.102485 0.70031,-0.102485 0.40994,0 0.80279,0.136646 0.39286,0.136647 0.68323,0.409939 0.30746,0.273291 0.49535,0.649069 0.18788,0.358695 0.29037,0.751553 0.11956,0.392858 0.15373,0.802796 0.0512,0.392857 0.0512,0.802795 v 5.465845 h -1.89596 v -5.465845 q 0,-0.222049 -0.0342,-0.444099 -0.0171,-0.22205 -0.0854,-0.427019 -0.0512,-0.22205 -0.1708,-0.409938 -0.10249,-0.187888 -0.2733,-0.341616 -0.15372,-0.153727 -0.37577,-0.22205 -0.20497,-0.06833 -0.42702,-0.06833 -0.22205,0 -0.4441,0.06833 -0.20497,0.06833 -0.37578,0.22205 -0.15373,0.153728 -0.27329,0.341616 -0.10249,0.187888 -0.17081,0.409938 -0.0512,0.204969 -0.0854,0.427019 -0.0171,0.22205 -0.0171,0.444099 v 5.465845 z m 8.81367,0 v -1.639753 h 2.15217 v -5.602491 h -1.91304 v -1.639753 h 3.82609 v 7.242244 h 1.91304 v 1.639753 z m 2.98913,-10.077651 q -0.27329,0 -0.54658,-0.08541 -0.2733,-0.08541 -0.46118,-0.273293 -0.18789,-0.187888 -0.2733,-0.46118 -0.0854,-0.273293 -0.0854,-0.546585 0,-0.273292 0.0854,-0.546584 0.0854,-0.273292 0.2733,-0.46118 0.18788,-0.187889 0.46118,-0.273293 0.27329,-0.08541 0.54658,-0.08541 0.27329,0 0.54659,0.08541 0.27329,0.08541 0.46118,0.273293 0.18788,0.187888 0.27329,0.46118 0.0854,0.273292 0.0854,0.546584 0,0.273292 -0.0854,0.546585 -0.0854,0.273292 -0.27329,0.46118 -0.18789,0.187888 -0.46118,0.273293 -0.2733,0.08541 -0.54659,0.08541 z m 8.48914,10.214297 q -0.46118,0 -0.92236,-0.08541 -0.46118,-0.08541 -0.87112,-0.307454 -0.39286,-0.239131 -0.71739,-0.580746 -0.30745,-0.358696 -0.51242,-0.768635 -0.18789,-0.427018 -0.25622,-0.888199 -0.0683,-0.46118 -0.0683,-0.922361 v -2.049692 q 0,-0.461181 0.0683,-0.922361 0.0683,-0.461181 0.25622,-0.871119 0.20497,-0.427019 0.51242,-0.768635 0.32453,-0.358695 0.71739,-0.580745 0.40994,-0.239131 0.87112,-0.324535 0.46118,-0.08541 0.92236,-0.08541 0.4441,0 0.87112,0.08541 0.4441,0.06833 0.83696,0.256212 0.39285,0.187888 0.70031,0.495342 0.32453,0.307454 0.5295,0.700311 0.20497,0.375777 0.30746,0.819876 0.10248,0.42702 0.10248,0.854039 v 0.03416 h -1.89596 v -0.01708 q 0,-0.307454 -0.10249,-0.597827 -0.0854,-0.290373 -0.27329,-0.529503 -0.18789,-0.239131 -0.47826,-0.341616 -0.29037,-0.119565 -0.59783,-0.119565 -0.34161,0 -0.64907,0.170808 -0.30745,0.153727 -0.49534,0.4441 -0.17081,0.273291 -0.23913,0.614907 -0.0683,0.341615 -0.0683,0.68323 v 2.049693 q 0,0.341615 0.0683,0.68323 0.0683,0.341615 0.23913,0.631988 0.18789,0.273293 0.49534,0.4441 0.30746,0.153726 0.64907,0.153726 0.30746,0 0.59783,-0.102484 0.29037,-0.119566 0.47826,-0.358696 0.18789,-0.239131 0.27329,-0.529503 0.10249,-0.290373 0.10249,-0.597828 v -0.01708 h 1.89596 v 0.03416 q 0,0.427019 -0.10248,0.871119 -0.10249,0.427018 -0.30746,0.819876 -0.20497,0.375777 -0.5295,0.68323 -0.30746,0.307455 -0.70031,0.495343 -0.39286,0.187888 -0.83696,0.256212 -0.42702,0.08541 -0.87112,0.08541 z m 5.3292,-0.136646 v -12.554361 h 1.89596 v 5.072987 q 0.13665,-0.341615 0.34162,-0.631988 0.20497,-0.290373 0.47826,-0.495343 0.29037,-0.22205 0.63199,-0.307453 0.34161,-0.102485 0.70031,-0.102485 0.40994,0 0.8028,0.136646 0.39285,0.136647 0.68323,0.409939 0.30745,0.273291 0.49534,0.649069 0.18789,0.358695 0.29037,0.751553 0.11957,0.392858 0.15373,0.802796 0.0512,0.392857 0.0512,0.802795 v 5.465845 h -1.89597 v -5.465845 q 0,-0.222049 -0.0342,-0.444099 -0.0171,-0.22205 -0.0854,-0.427019 -0.0512,-0.22205 -0.17081,-0.409938 -0.10248,-0.187888 -0.27329,-0.341616 -0.15373,-0.153727 -0.37578,-0.22205 -0.20497,-0.06833 -0.42702,-0.06833 -0.22205,0 -0.4441,0.06833 -0.20497,0.06833 -0.37577,0.22205 -0.15373,0.153728 -0.2733,0.341616 -0.10248,0.187888 -0.1708,0.409938 -0.0512,0.204969 -0.0854,0.427019 -0.0171,0.22205 -0.0171,0.444099 v 5.465845 z"
           id="path502"
           style="-inkscape-font-specification:'Iosevka Nerd Font Mono, Bold';fill:#ffffff;stroke-width:0.42702"
           aria-label="bandwhich" />
      </g>
    </mask>
    <filter
       inkscape:collect="always"
       style="color-interpolation-filters:sRGB"
       id="filter761-1-1-9-5"
       x="-0.25336387"
       y="-1.4646928"
       width="1.5067277"
       height="3.9293856">
      <feGaussianBlur
         inkscape:collect="always"
         stdDeviation="7.9015599"
         id="feGaussianBlur761-2-7-8-0" />
    </filter>
  </defs>
  <g
     inkscape:label="Layer 1"
     inkscape:groupmode="layer"
     id="layer1">
    <path
       id="path21-6-7-1-7-0"
       style="fill:#4d4d4d;stroke:#4d4d4d;stroke-width:2.49598"
       d="M 108.05635,52.916673 A 51.66874,51.668677 0 0 1 56.387607,104.58534 51.66874,51.668677 0 0 1 4.7188653,52.916673 51.66874,51.668677 0 0 1 56.387607,1.2479937 51.66874,51.668677 0 0 1 108.05635,52.916673 Z"
       mask="none"
       inkscape:label="bg-circle" />
    <g
       id="g776"
       transform="matrix(1.0000012,0,0,0.99999999,420.51189,-630.50189)"
       inkscape:label="tl">
      <path
         style="color:#000000;display:inline;fill:#000000;stroke-width:1.06458;-inkscape-stroke:none"
         d="M 11.761524,8.2907194 H 55.212725 V 51.741921 H 11.761524 Z"
         id="path287-1-1-2-6-1"
         inkscape:label="bg"
         transform="matrix(0.99999879,0,0,1,-420.51139,630.5019)" />
      <g
         id="g775"
         inkscape:label="bars-right">
        <path
           style="color:#000000;fill:#4d4d4d;stroke-width:0.770395;-inkscape-stroke:none"
           d="m -387.73616,645.62531 h 15.89901 v 0.0227 h -15.89901 z"
           id="path281-9-5-8-8-0" />
        <path
           style="color:#000000;fill:#4d4d4d;stroke-width:0.770395;-inkscape-stroke:none"
           d="m -388.76372,644.5972 v 1.02769 1.05027 h 17.95379 v -2.07796 z"
           id="path280-1-8-0-1-3" />
        <path
           style="color:#000000;fill:#4d4d4d;stroke-width:0.770395;-inkscape-stroke:none"
           d="m -387.73616,651.57813 h 15.89901 v 0.0226 h -15.89901 z"
           id="path277-5-7-0-5-5" />
        <path
           style="color:#000000;fill:#4d4d4d;stroke-width:0.770395;-inkscape-stroke:none"
           d="m -388.76372,650.5497 v 1.0277 1.05176 h 17.95379 v -2.07946 z"
           id="path276-8-1-03-2-6" />
        <path
           style="color:#000000;fill:#4d4d4d;stroke-width:0.770395;-inkscape-stroke:none"
           d="m -387.73616,657.53196 h 15.89901 v 0.0226 h -15.89901 z"
           id="path269-2-9-2-4-2" />
        <path
           style="color:#000000;fill:#4d4d4d;stroke-width:0.770395;-inkscape-stroke:none"
           d="m -388.76372,656.50371 v 1.02769 1.05026 h 17.95379 v -2.07795 z"
           id="path268-9-3-4-9-1" />
        <path
           style="color:#000000;fill:#4d4d4d;stroke-width:0.770395;-inkscape-stroke:none"
           d="m -387.73616,663.4834 h 15.89901 v 0.0226 h -15.89901 z"
           id="path265-0-3-8-8-1" />
        <path
           style="color:#000000;fill:#4d4d4d;stroke-width:0.770395;-inkscape-stroke:none"
           d="m -388.76372,662.4562 v 1.02769 1.05026 h 17.95379 v -2.07795 z"
           id="path264-4-7-6-9-6" />
        <path
           style="color:#000000;fill:#4d4d4d;stroke-width:0.770395;-inkscape-stroke:none"
           d="m -387.73616,669.43657 h 15.89901 v 0.0226 h -15.89901 z"
           id="path261-2-2-9-4-5" />
        <path
           style="color:#000000;fill:#4d4d4d;stroke-width:0.770395;-inkscape-stroke:none"
           d="m -388.76372,668.40869 v 1.0277 1.05026 h 17.95379 v -2.07796 z"
           id="path260-0-0-2-8-9" />
        <path
           style="color:#000000;fill:#4d4d4d;stroke-width:0.770395;-inkscape-stroke:none"
           d="m -387.73616,675.38891 h 15.89901 v 0.0226 h -15.89901 z"
           id="path257-2-7-1-7-6" />
        <path
           style="color:#000000;fill:#4d4d4d;stroke-width:0.770395;-inkscape-stroke:none"
           d="m -388.76372,674.36119 v 1.0277 1.05026 h 17.95379 v -2.07796 z"
           id="path256-9-5-83-7-4" />
      </g>
      <g
         id="g3"
         inkscape:label="bars-left"
         transform="translate(-1.2389116e-5)">
        <path
           style="color:#000000;fill:#4d4d4d;stroke-width:0.770395;-inkscape-stroke:none"
           d="m -402.21917,645.61681 h 8.93242 v 0.0397 h -8.93242 z"
           id="path283-1-8-3-8-1" />
        <path
           style="color:#000000;fill:#4d4d4d;stroke-width:0.770395;-inkscape-stroke:none"
           d="m -403.23852,644.5972 v 1.02016 1.0578 h 10.97059 v -2.07796 z"
           id="path282-4-8-2-4-3" />
        <path
           style="color:#000000;fill:#4d4d4d;stroke-width:0.770395;-inkscape-stroke:none"
           d="m -402.21917,651.56963 h 8.93242 v 0.0397 h -8.93242 z"
           id="path279-0-4-3-6-1" />
        <path
           style="color:#000000;fill:#4d4d4d;stroke-width:0.770395;-inkscape-stroke:none"
           d="m -403.23852,650.5497 v 1.02018 1.05928 h 10.97059 v -2.07946 z"
           id="path278-7-3-7-8-7" />
        <path
           style="color:#000000;fill:#4d4d4d;stroke-width:0.770395;-inkscape-stroke:none"
           d="m -402.21917,657.52345 h 8.93242 v 0.0397 h -8.93242 z"
           id="path271-0-7-2-0-4" />
        <path
           style="color:#000000;fill:#4d4d4d;stroke-width:0.770395;-inkscape-stroke:none"
           d="m -403.23852,656.50371 v 1.02017 1.05778 h 10.97059 v -2.07795 z"
           id="path270-4-9-5-6-2" />
        <path
           style="color:#000000;fill:#4d4d4d;stroke-width:0.770395;-inkscape-stroke:none"
           d="m -402.21917,663.47489 h 8.93242 v 0.0397 h -8.93242 z"
           id="path267-6-2-4-9-2" />
        <path
           style="color:#000000;fill:#4d4d4d;stroke-width:0.770395;-inkscape-stroke:none"
           d="m -403.23852,662.4562 v 1.01866 1.05929 h 10.97059 v -2.07795 z"
           id="path266-1-4-3-0-4" />
        <path
           style="color:#000000;fill:#4d4d4d;stroke-width:0.770395;-inkscape-stroke:none"
           d="m -402.21917,669.42806 h 8.93242 v 0.0397 h -8.93242 z"
           id="path263-2-1-0-3-7" />
        <path
           style="color:#000000;fill:#4d4d4d;stroke-width:0.770395;-inkscape-stroke:none"
           d="m -403.23852,668.40869 v 1.01867 1.05929 h 10.97059 v -2.07796 z"
           id="path262-2-2-8-1-8" />
        <path
           style="color:#000000;fill:#4d4d4d;stroke-width:0.770395;-inkscape-stroke:none"
           d="m -402.21917,675.3804 h 8.93242 v 0.0397 h -8.93242 z"
           id="path259-5-2-2-9-7" />
        <path
           style="color:#000000;fill:#4d4d4d;stroke-width:0.770395;-inkscape-stroke:none"
           d="m -403.23852,674.36119 v 1.01866 1.0593 h 10.97059 v -2.07796 z"
           id="path258-5-1-3-6-3" />
      </g>
    </g>
    <g
       id="g774"
       transform="matrix(1.0000012,0,0,0.99999999,512.791,-630.3474)"
       inkscape:label="tr">
      <path
         style="color:#000000;display:inline;fill:#000000;stroke-width:1.06458;-inkscape-stroke:none"
         d="m -455.22796,638.79283 h 43.45115 v 43.4512 h -43.45115 z"
         id="path285-9-0-4-0-7"
         inkscape:label="bg" />
      <path
         d="m -428.65612,671.90212 -4.19947,-6.70561 h 2.47227 v -15.40934 h 3.52213 v 15.40934 h 2.43841 z m -11.65015,0 v -15.37548 h -2.47227 l 4.23334,-6.73947 4.19947,6.73947 h -2.4384 v 15.37548 z"
         id="text3"
         style="font-weight:bold;font-size:33.8667px;font-family:'Noto Sans';-inkscape-font-specification:'Noto Sans Bold';fill:#ffffff;stroke-width:0.264583"
         inkscape:label="arrow-text"
         aria-label="â®" />
    </g>
    <g
       id="g2"
       inkscape:label="bc"
       transform="matrix(1.0000012,0,0,0.99999999,466.99017,-630.5021)">
      <path
         style="color:#000000;display:inline;fill:#000000;stroke-width:1.0691;-inkscape-stroke:none"
         d="m -455.2281,684.59353 h 89.25206 v 43.4512 h -89.25206 z"
         id="path289-3-7-0-9-4"
         inkscape:label="bg" />
      <path
         d="m -443.96063,712.79259 q -0.3587,0 -0.70031,-0.10249 -0.34162,-0.0854 -0.63199,-0.29037 -0.29037,-0.22205 -0.49534,-0.51242 -0.20497,-0.29037 -0.34162,-0.63199 v 1.40062 h -1.89596 v -12.55436 h 1.89596 v 5.07299 q 0.13665,-0.34162 0.34162,-0.63199 0.20497,-0.29037 0.49534,-0.49534 0.29037,-0.22205 0.63199,-0.30746 0.34161,-0.10248 0.70031,-0.10248 0.40994,0 0.80279,0.13664 0.40994,0.11957 0.7174,0.39286 0.32453,0.25621 0.5295,0.63199 0.22205,0.3587 0.34162,0.75156 0.11956,0.39285 0.15372,0.81987 0.0512,0.40994 0.0512,0.81988 v 2.04969 q 0,0.40994 -0.0512,0.83696 -0.0342,0.40993 -0.15372,0.80279 -0.11957,0.39286 -0.34162,0.76864 -0.20497,0.35869 -0.5295,0.63199 -0.30746,0.25621 -0.7174,0.37577 -0.39285,0.13665 -0.80279,0.13665 z m -0.78572,-1.63975 q 0.34162,0 0.64907,-0.15373 0.32454,-0.17081 0.51243,-0.4441 0.18788,-0.29037 0.25621,-0.63199 0.0683,-0.34162 0.0683,-0.68323 v -2.04969 q 0,-0.34162 -0.0683,-0.68323 -0.0683,-0.34162 -0.25621,-0.61491 -0.18789,-0.29037 -0.51243,-0.4441 -0.30745,-0.17081 -0.64907,-0.17081 -0.22205,0 -0.4441,0.0683 -0.20497,0.0683 -0.37577,0.22205 -0.17081,0.13665 -0.29038,0.34162 -0.10248,0.18789 -0.1708,0.40994 -0.0512,0.20497 -0.0854,0.42702 -0.0171,0.22205 -0.0171,0.44409 v 2.0497 q 0,0.22205 0.0171,0.4441 0.0342,0.22205 0.0854,0.4441 0.0683,0.20497 0.1708,0.40994 0.11957,0.18788 0.29038,0.34161 0.1708,0.13665 0.37577,0.20497 0.22205,0.0683 0.4441,0.0683 z m 7.48138,1.63975 q -0.34162,0 -0.66615,-0.0683 -0.32454,-0.0512 -0.61491,-0.22205 -0.29037,-0.17081 -0.51242,-0.42702 -0.20497,-0.27329 -0.34162,-0.56367 -0.11956,-0.30745 -0.1708,-0.63198 -0.0512,-0.34162 -0.0512,-0.66615 0,-0.46118 0.10248,-0.90528 0.11957,-0.44411 0.37578,-0.8028 0.27329,-0.3587 0.64907,-0.59783 0.39285,-0.25621 0.81987,-0.39286 0.42702,-0.15372 0.87112,-0.20496 0.46118,-0.0683 0.90528,-0.0683 h 1.04193 v -0.58075 q 0,-0.29037 -0.0854,-0.54658 -0.0854,-0.2733 -0.29037,-0.46118 -0.18789,-0.20497 -0.46118,-0.29038 -0.27329,-0.0854 -0.56367,-0.0854 -0.23913,0 -0.49534,0.0683 -0.23913,0.0512 -0.4441,0.20497 -0.20497,0.15373 -0.32453,0.39286 -0.10249,0.23913 -0.10249,0.47826 h -1.89596 q 0,-0.39286 0.10248,-0.78571 0.11957,-0.39286 0.34162,-0.73448 0.22205,-0.34161 0.54658,-0.59782 0.32454,-0.25622 0.70031,-0.39286 0.37578,-0.15373 0.76864,-0.20497 0.40994,-0.0683 0.80279,-0.0683 0.42702,0 0.85404,0.0683 0.42702,0.0512 0.8028,0.22205 0.39286,0.17081 0.71739,0.46118 0.32453,0.27329 0.5295,0.64907 0.22205,0.35869 0.30746,0.78571 0.0854,0.40994 0.0854,0.83696 v 5.99535 h -1.89596 v -1.3323 q -0.0854,0.17081 -0.11957,0.22205 -0.0171,0.0342 -0.0683,0.11956 -0.0512,0.0683 -0.11957,0.15373 -0.0512,0.0683 -0.11956,0.13665 -0.0512,0.0683 -0.11957,0.13664 -0.0683,0.0683 -0.13665,0.13665 -0.0683,0.0512 -0.15372,0.10249 -0.0683,0.0512 -0.15373,0.10248 -0.0683,0.0512 -0.15373,0.10248 -0.0854,0.0342 -0.1708,0.0683 -0.0854,0.0342 -0.18789,0.0512 -0.0854,0.0342 -0.17081,0.0512 -0.0854,0.0342 -0.18789,0.0342 -0.0854,0.0171 -0.18789,0.0171 -0.0854,0.0171 -0.18789,0.0171 -0.0854,0.0171 -0.1708,0.0171 z m 0.76863,-1.63975 q 0.32454,0 0.63199,-0.0854 0.32454,-0.10249 0.54658,-0.32454 0.23914,-0.22205 0.34162,-0.5295 0.11957,-0.30746 0.11957,-0.63199 v -0.70031 h -1.04193 q -0.20497,0 -0.40994,0.0171 -0.18789,0.0171 -0.39286,0.0683 -0.18789,0.0512 -0.37577,0.13664 -0.18789,0.0683 -0.34162,0.20497 -0.15373,0.13665 -0.23913,0.32454 -0.0683,0.18789 -0.0683,0.39285 0,0.23914 0.0854,0.46118 0.0854,0.22205 0.25621,0.39286 0.18789,0.15373 0.40994,0.22205 0.23913,0.0512 0.47826,0.0512 z m 5.55125,1.5031 v -8.88199 h 1.89597 v 1.40062 q 0.13664,-0.34162 0.34161,-0.63199 0.20497,-0.29037 0.47826,-0.49534 0.29037,-0.22205 0.63199,-0.30746 0.34161,-0.10248 0.70031,-0.10248 0.40994,0 0.8028,0.13664 0.39285,0.13665 0.68323,0.40994 0.30745,0.2733 0.49534,0.64907 0.18789,0.3587 0.29037,0.75156 0.11957,0.39285 0.15373,0.80279 0.0512,0.39286 0.0512,0.8028 v 5.46584 h -1.89597 v -5.46584 q 0,-0.22205 -0.0342,-0.4441 -0.0171,-0.22205 -0.0854,-0.42702 -0.0512,-0.22205 -0.17081,-0.40994 -0.10248,-0.18789 -0.27329,-0.34161 -0.15373,-0.15373 -0.37578,-0.22205 -0.20497,-0.0683 -0.42702,-0.0683 -0.22205,0 -0.4441,0.0683 -0.20497,0.0683 -0.37578,0.22205 -0.15372,0.15372 -0.27329,0.34161 -0.10248,0.18789 -0.1708,0.40994 -0.0512,0.20497 -0.0854,0.42702 -0.0171,0.22205 -0.0171,0.4441 v 5.46584 z m 11.00001,0.13665 q -0.40994,0 -0.81988,-0.13665 -0.39285,-0.11956 -0.71739,-0.37577 -0.30745,-0.2733 -0.5295,-0.63199 -0.20497,-0.37578 -0.32454,-0.76864 -0.11956,-0.39285 -0.1708,-0.80279 -0.0342,-0.42702 -0.0342,-0.83696 v -2.04969 q 0,-0.40994 0.0342,-0.81988 0.0512,-0.42702 0.1708,-0.81987 0.11957,-0.39286 0.32454,-0.75156 0.22205,-0.37578 0.5295,-0.63199 0.32454,-0.27329 0.71739,-0.39286 0.40994,-0.13664 0.81988,-0.13664 0.3587,0 0.70031,0.10248 0.34162,0.0854 0.63199,0.30746 0.29037,0.20497 0.49534,0.49534 0.20497,0.29037 0.34162,0.63199 v -5.07299 h 1.89596 v 12.55436 h -1.89596 v -1.40062 q -0.13665,0.34162 -0.34162,0.63199 -0.20497,0.29037 -0.49534,0.51242 -0.29037,0.20497 -0.63199,0.29037 -0.34161,0.10249 -0.70031,0.10249 z m 0.78572,-1.63975 q 0.22205,0 0.42701,-0.0683 0.22205,-0.0683 0.39286,-0.20497 0.17081,-0.15373 0.27329,-0.34162 0.11957,-0.20497 0.17081,-0.40994 0.0683,-0.22205 0.0854,-0.4441 0.0342,-0.22205 0.0342,-0.4441 v -2.04969 q 0,-0.22205 -0.0342,-0.4441 -0.0171,-0.22205 -0.0854,-0.42702 -0.0512,-0.22205 -0.17081,-0.40994 -0.10248,-0.20496 -0.27329,-0.34161 -0.17081,-0.15373 -0.39286,-0.22205 -0.20496,-0.0683 -0.42701,-0.0683 -0.34162,0 -0.66615,0.17081 -0.30746,0.15372 -0.49535,0.4441 -0.18788,0.27329 -0.25621,0.6149 -0.0683,0.34162 -0.0683,0.68323 v 2.0497 q 0,0.34161 0.0683,0.68323 0.0683,0.34161 0.25621,0.63199 0.18789,0.27329 0.49535,0.4441 0.32453,0.15372 0.66615,0.15372 z m 6.14907,1.5031 -1.46894,-8.88199 h 1.91304 l 0.42702,7.03727 0.78572,-4.54348 h 1.5031 l 0.78572,4.54348 0.42702,-7.03727 h 1.91304 l -1.46894,8.88199 h -1.52019 l -0.8882,-4.49224 -0.8882,4.49224 z m 7.68635,0 v -12.55436 h 1.89596 v 5.07299 q 0.13665,-0.34162 0.34162,-0.63199 0.20497,-0.29037 0.47826,-0.49534 0.29037,-0.22205 0.63199,-0.30746 0.34161,-0.10248 0.70031,-0.10248 0.40994,0 0.80279,0.13664 0.39286,0.13665 0.68323,0.40994 0.30746,0.2733 0.49535,0.64907 0.18788,0.3587 0.29037,0.75156 0.11956,0.39285 0.15373,0.80279 0.0512,0.39286 0.0512,0.8028 v 5.46584 h -1.89596 v -5.46584 q 0,-0.22205 -0.0342,-0.4441 -0.0171,-0.22205 -0.0854,-0.42702 -0.0512,-0.22205 -0.1708,-0.40994 -0.10249,-0.18789 -0.2733,-0.34161 -0.15372,-0.15373 -0.37577,-0.22205 -0.20497,-0.0683 -0.42702,-0.0683 -0.22205,0 -0.4441,0.0683 -0.20497,0.0683 -0.37578,0.22205 -0.15373,0.15372 -0.27329,0.34161 -0.10249,0.18789 -0.17081,0.40994 -0.0512,0.20497 -0.0854,0.42702 -0.0171,0.22205 -0.0171,0.4441 v 5.46584 z m 8.81367,0 v -1.63975 h 2.15217 v -5.60249 h -1.91304 v -1.63975 h 3.82609 v 7.24224 h 1.91304 v 1.63975 z m 2.98913,-10.07765 q -0.27329,0 -0.54658,-0.0854 -0.2733,-0.0854 -0.46118,-0.27329 -0.18789,-0.18789 -0.2733,-0.46118 -0.0854,-0.27329 -0.0854,-0.54659 0,-0.27329 0.0854,-0.54658 0.0854,-0.27329 0.2733,-0.46118 0.18788,-0.18789 0.46118,-0.27329 0.27329,-0.0854 0.54658,-0.0854 0.27329,0 0.54659,0.0854 0.27329,0.0854 0.46118,0.27329 0.18788,0.18789 0.27329,0.46118 0.0854,0.27329 0.0854,0.54658 0,0.2733 -0.0854,0.54659 -0.0854,0.27329 -0.27329,0.46118 -0.18789,0.18789 -0.46118,0.27329 -0.2733,0.0854 -0.54659,0.0854 z m 8.48914,10.2143 q -0.46118,0 -0.92236,-0.0854 -0.46118,-0.0854 -0.87112,-0.30746 -0.39286,-0.23913 -0.71739,-0.58074 -0.30745,-0.3587 -0.51242,-0.76864 -0.18789,-0.42702 -0.25622,-0.8882 -0.0683,-0.46118 -0.0683,-0.92236 v -2.04969 q 0,-0.46118 0.0683,-0.92236 0.0683,-0.46118 0.25622,-0.87112 0.20497,-0.42702 0.51242,-0.76863 0.32453,-0.3587 0.71739,-0.58075 0.40994,-0.23913 0.87112,-0.32453 0.46118,-0.0854 0.92236,-0.0854 0.4441,0 0.87112,0.0854 0.4441,0.0683 0.83696,0.25621 0.39285,0.18789 0.70031,0.49534 0.32453,0.30745 0.5295,0.70031 0.20497,0.37578 0.30746,0.81988 0.10248,0.42702 0.10248,0.85404 v 0.0342 h -1.89596 v -0.0171 q 0,-0.30746 -0.10249,-0.59783 -0.0854,-0.29037 -0.27329,-0.5295 -0.18789,-0.23913 -0.47826,-0.34162 -0.29037,-0.11956 -0.59783,-0.11956 -0.34161,0 -0.64907,0.1708 -0.30745,0.15373 -0.49534,0.4441 -0.17081,0.27329 -0.23913,0.61491 -0.0683,0.34162 -0.0683,0.68323 v 2.04969 q 0,0.34162 0.0683,0.68323 0.0683,0.34162 0.23913,0.63199 0.18789,0.27329 0.49534,0.4441 0.30746,0.15373 0.64907,0.15373 0.30746,0 0.59783,-0.10249 0.29037,-0.11956 0.47826,-0.35869 0.18789,-0.23913 0.27329,-0.52951 0.10249,-0.29037 0.10249,-0.59782 v -0.0171 h 1.89596 v 0.0342 q 0,0.42702 -0.10248,0.87112 -0.10249,0.42701 -0.30746,0.81987 -0.20497,0.37578 -0.5295,0.68323 -0.30746,0.30746 -0.70031,0.49534 -0.39286,0.18789 -0.83696,0.25622 -0.42702,0.0854 -0.87112,0.0854 z m 5.3292,-0.13665 v -12.55436 h 1.89596 v 5.07299 q 0.13665,-0.34162 0.34162,-0.63199 0.20497,-0.29037 0.47826,-0.49534 0.29037,-0.22205 0.63199,-0.30746 0.34161,-0.10248 0.70031,-0.10248 0.40994,0 0.8028,0.13664 0.39285,0.13665 0.68323,0.40994 0.30745,0.2733 0.49534,0.64907 0.18789,0.3587 0.29037,0.75156 0.11957,0.39285 0.15373,0.80279 0.0512,0.39286 0.0512,0.8028 v 5.46584 h -1.89597 v -5.46584 q 0,-0.22205 -0.0342,-0.4441 -0.0171,-0.22205 -0.0854,-0.42702 -0.0512,-0.22205 -0.17081,-0.40994 -0.10248,-0.18789 -0.27329,-0.34161 -0.15373,-0.15373 -0.37578,-0.22205 -0.20497,-0.0683 -0.42702,-0.0683 -0.22205,0 -0.4441,0.0683 -0.20497,0.0683 -0.37577,0.22205 -0.15373,0.15372 -0.2733,0.34161 -0.10248,0.18789 -0.1708,0.40994 -0.0512,0.20497 -0.0854,0.42702 -0.0171,0.22205 -0.0171,0.4441 v 5.46584 z"
         id="path254-2-7-2-7-9"
         style="-inkscape-font-specification:'Iosevka Nerd Font Mono, Bold';display:inline;fill:#ffffff;stroke-width:0.42702"
         aria-label="bandwhich"
         inkscape:label="bandwhich-text" />
      <path
         d="m -443.96064,712.7926 q -0.3587,0 -0.70031,-0.10249 -0.34162,-0.0854 -0.63199,-0.29037 -0.29037,-0.22205 -0.49534,-0.51242 -0.20497,-0.29037 -0.34162,-0.63199 v 1.40062 h -1.89596 v -12.55436 h 1.89596 v 5.07299 q 0.13665,-0.34162 0.34162,-0.63199 0.20497,-0.29037 0.49534,-0.49534 0.29037,-0.22205 0.63199,-0.30746 0.34161,-0.10248 0.70031,-0.10248 0.40994,0 0.80279,0.13664 0.40994,0.11957 0.7174,0.39286 0.32453,0.25621 0.5295,0.63199 0.22205,0.3587 0.34162,0.75156 0.11956,0.39285 0.15372,0.81987 0.0512,0.40994 0.0512,0.81988 v 2.04969 q 0,0.40994 -0.0512,0.83696 -0.0342,0.40993 -0.15372,0.80279 -0.11957,0.39286 -0.34162,0.76864 -0.20497,0.35869 -0.5295,0.63199 -0.30746,0.25621 -0.7174,0.37577 -0.39285,0.13665 -0.80279,0.13665 z m -0.78572,-1.63975 q 0.34162,0 0.64907,-0.15373 0.32454,-0.17081 0.51243,-0.4441 0.18788,-0.29037 0.25621,-0.63199 0.0683,-0.34162 0.0683,-0.68323 v -2.04969 q 0,-0.34162 -0.0683,-0.68323 -0.0683,-0.34162 -0.25621,-0.61491 -0.18789,-0.29037 -0.51243,-0.4441 -0.30745,-0.17081 -0.64907,-0.17081 -0.22205,0 -0.4441,0.0683 -0.20497,0.0683 -0.37577,0.22205 -0.17081,0.13665 -0.29038,0.34162 -0.10248,0.18789 -0.1708,0.40994 -0.0512,0.20497 -0.0854,0.42702 -0.0171,0.22205 -0.0171,0.44409 v 2.0497 q 0,0.22205 0.0171,0.4441 0.0342,0.22205 0.0854,0.4441 0.0683,0.20497 0.1708,0.40994 0.11957,0.18788 0.29038,0.34161 0.1708,0.13665 0.37577,0.20497 0.22205,0.0683 0.4441,0.0683 z m 7.48138,1.63975 q -0.34162,0 -0.66615,-0.0683 -0.32454,-0.0512 -0.61491,-0.22205 -0.29037,-0.17081 -0.51242,-0.42702 -0.20497,-0.27329 -0.34162,-0.56367 -0.11956,-0.30745 -0.1708,-0.63198 -0.0512,-0.34162 -0.0512,-0.66615 0,-0.46118 0.10248,-0.90528 0.11957,-0.44411 0.37578,-0.8028 0.27329,-0.3587 0.64907,-0.59783 0.39285,-0.25621 0.81987,-0.39286 0.42702,-0.15372 0.87112,-0.20496 0.46118,-0.0683 0.90528,-0.0683 h 1.04193 v -0.58075 q 0,-0.29037 -0.0854,-0.54658 -0.0854,-0.2733 -0.29037,-0.46118 -0.18789,-0.20497 -0.46118,-0.29038 -0.27329,-0.0854 -0.56367,-0.0854 -0.23913,0 -0.49534,0.0683 -0.23913,0.0512 -0.4441,0.20497 -0.20497,0.15373 -0.32453,0.39286 -0.10249,0.23913 -0.10249,0.47826 h -1.89596 q 0,-0.39286 0.10248,-0.78571 0.11957,-0.39286 0.34162,-0.73448 0.22205,-0.34161 0.54658,-0.59782 0.32454,-0.25622 0.70031,-0.39286 0.37578,-0.15373 0.76864,-0.20497 0.40994,-0.0683 0.80279,-0.0683 0.42702,0 0.85404,0.0683 0.42702,0.0512 0.8028,0.22205 0.39286,0.17081 0.71739,0.46118 0.32453,0.27329 0.5295,0.64907 0.22205,0.35869 0.30746,0.78571 0.0854,0.40994 0.0854,0.83696 v 5.99535 h -1.89596 v -1.3323 q -0.0854,0.17081 -0.11957,0.22205 -0.0171,0.0342 -0.0683,0.11956 -0.0512,0.0683 -0.11957,0.15373 -0.0512,0.0683 -0.11956,0.13665 -0.0512,0.0683 -0.11957,0.13664 -0.0683,0.0683 -0.13665,0.13665 -0.0683,0.0512 -0.15372,0.10249 -0.0683,0.0512 -0.15373,0.10248 -0.0683,0.0512 -0.15373,0.10248 -0.0854,0.0342 -0.1708,0.0683 -0.0854,0.0342 -0.18789,0.0512 -0.0854,0.0342 -0.17081,0.0512 -0.0854,0.0342 -0.18789,0.0342 -0.0854,0.0171 -0.18789,0.0171 -0.0854,0.0171 -0.18789,0.0171 -0.0854,0.0171 -0.1708,0.0171 z m 0.76863,-1.63975 q 0.32454,0 0.63199,-0.0854 0.32454,-0.10249 0.54658,-0.32454 0.23914,-0.22205 0.34162,-0.5295 0.11957,-0.30746 0.11957,-0.63199 v -0.70031 h -1.04193 q -0.20497,0 -0.40994,0.0171 -0.18789,0.0171 -0.39286,0.0683 -0.18789,0.0512 -0.37577,0.13664 -0.18789,0.0683 -0.34162,0.20497 -0.15373,0.13665 -0.23913,0.32454 -0.0683,0.18789 -0.0683,0.39285 0,0.23914 0.0854,0.46118 0.0854,0.22205 0.25621,0.39286 0.18789,0.15373 0.40994,0.22205 0.23913,0.0512 0.47826,0.0512 z m 5.55125,1.5031 v -8.88199 h 1.89597 v 1.40062 q 0.13664,-0.34162 0.34161,-0.63199 0.20497,-0.29037 0.47826,-0.49534 0.29037,-0.22205 0.63199,-0.30746 0.34161,-0.10248 0.70031,-0.10248 0.40994,0 0.8028,0.13664 0.39285,0.13665 0.68323,0.40994 0.30745,0.2733 0.49534,0.64907 0.18789,0.3587 0.29037,0.75156 0.11957,0.39285 0.15373,0.80279 0.0512,0.39286 0.0512,0.8028 v 5.46584 h -1.89597 v -5.46584 q 0,-0.22205 -0.0342,-0.4441 -0.0171,-0.22205 -0.0854,-0.42702 -0.0512,-0.22205 -0.17081,-0.40994 -0.10248,-0.18789 -0.27329,-0.34161 -0.15373,-0.15373 -0.37578,-0.22205 -0.20497,-0.0683 -0.42702,-0.0683 -0.22205,0 -0.4441,0.0683 -0.20497,0.0683 -0.37578,0.22205 -0.15372,0.15372 -0.27329,0.34161 -0.10248,0.18789 -0.1708,0.40994 -0.0512,0.20497 -0.0854,0.42702 -0.0171,0.22205 -0.0171,0.4441 v 5.46584 z m 11.00001,0.13665 q -0.40994,0 -0.81988,-0.13665 -0.39285,-0.11956 -0.71739,-0.37577 -0.30745,-0.2733 -0.5295,-0.63199 -0.20497,-0.37578 -0.32454,-0.76864 -0.11956,-0.39285 -0.1708,-0.80279 -0.0342,-0.42702 -0.0342,-0.83696 v -2.04969 q 0,-0.40994 0.0342,-0.81988 0.0512,-0.42702 0.1708,-0.81987 0.11957,-0.39286 0.32454,-0.75156 0.22205,-0.37578 0.5295,-0.63199 0.32454,-0.27329 0.71739,-0.39286 0.40994,-0.13664 0.81988,-0.13664 0.3587,0 0.70031,0.10248 0.34162,0.0854 0.63199,0.30746 0.29037,0.20497 0.49534,0.49534 0.20497,0.29037 0.34162,0.63199 v -5.07299 h 1.89596 v 12.55436 h -1.89596 v -1.40062 q -0.13665,0.34162 -0.34162,0.63199 -0.20497,0.29037 -0.49534,0.51242 -0.29037,0.20497 -0.63199,0.29037 -0.34161,0.10249 -0.70031,0.10249 z m 0.78572,-1.63975 q 0.22205,0 0.42701,-0.0683 0.22205,-0.0683 0.39286,-0.20497 0.17081,-0.15373 0.27329,-0.34162 0.11957,-0.20497 0.17081,-0.40994 0.0683,-0.22205 0.0854,-0.4441 0.0342,-0.22205 0.0342,-0.4441 v -2.04969 q 0,-0.22205 -0.0342,-0.4441 -0.0171,-0.22205 -0.0854,-0.42702 -0.0512,-0.22205 -0.17081,-0.40994 -0.10248,-0.20496 -0.27329,-0.34161 -0.17081,-0.15373 -0.39286,-0.22205 -0.20496,-0.0683 -0.42701,-0.0683 -0.34162,0 -0.66615,0.17081 -0.30746,0.15372 -0.49535,0.4441 -0.18788,0.27329 -0.25621,0.6149 -0.0683,0.34162 -0.0683,0.68323 v 2.0497 q 0,0.34161 0.0683,0.68323 0.0683,0.34161 0.25621,0.63199 0.18789,0.27329 0.49535,0.4441 0.32453,0.15372 0.66615,0.15372 z m 6.14907,1.5031 -1.46894,-8.88199 h 1.91304 l 0.42702,7.03727 0.78572,-4.54348 h 1.5031 l 0.78572,4.54348 0.42702,-7.03727 h 1.91304 l -1.46894,8.88199 h -1.52019 l -0.8882,-4.49224 -0.8882,4.49224 z m 7.68635,0 v -12.55436 h 1.89596 v 5.07299 q 0.13665,-0.34162 0.34162,-0.63199 0.20497,-0.29037 0.47826,-0.49534 0.29037,-0.22205 0.63199,-0.30746 0.34161,-0.10248 0.70031,-0.10248 0.40994,0 0.80279,0.13664 0.39286,0.13665 0.68323,0.40994 0.30746,0.2733 0.49535,0.64907 0.18788,0.3587 0.29037,0.75156 0.11956,0.39285 0.15373,0.80279 0.0512,0.39286 0.0512,0.8028 v 5.46584 h -1.89596 v -5.46584 q 0,-0.22205 -0.0342,-0.4441 -0.0171,-0.22205 -0.0854,-0.42702 -0.0512,-0.22205 -0.1708,-0.40994 -0.10249,-0.18789 -0.2733,-0.34161 -0.15372,-0.15373 -0.37577,-0.22205 -0.20497,-0.0683 -0.42702,-0.0683 -0.22205,0 -0.4441,0.0683 -0.20497,0.0683 -0.37578,0.22205 -0.15373,0.15372 -0.27329,0.34161 -0.10249,0.18789 -0.17081,0.40994 -0.0512,0.20497 -0.0854,0.42702 -0.0171,0.22205 -0.0171,0.4441 v 5.46584 z m 8.81367,0 v -1.63975 h 2.15217 v -5.60249 h -1.91304 v -1.63975 h 3.82609 v 7.24224 h 1.91304 v 1.63975 z m 2.98913,-10.07765 q -0.27329,0 -0.54658,-0.0854 -0.2733,-0.0854 -0.46118,-0.27329 -0.18789,-0.18789 -0.2733,-0.46118 -0.0854,-0.27329 -0.0854,-0.54659 0,-0.27329 0.0854,-0.54658 0.0854,-0.27329 0.2733,-0.46118 0.18788,-0.18789 0.46118,-0.27329 0.27329,-0.0854 0.54658,-0.0854 0.27329,0 0.54659,0.0854 0.27329,0.0854 0.46118,0.27329 0.18788,0.18789 0.27329,0.46118 0.0854,0.27329 0.0854,0.54658 0,0.2733 -0.0854,0.54659 -0.0854,0.27329 -0.27329,0.46118 -0.18789,0.18789 -0.46118,0.27329 -0.2733,0.0854 -0.54659,0.0854 z m 8.48914,10.2143 q -0.46118,0 -0.92236,-0.0854 -0.46118,-0.0854 -0.87112,-0.30746 -0.39286,-0.23913 -0.71739,-0.58074 -0.30745,-0.3587 -0.51242,-0.76864 -0.18789,-0.42702 -0.25622,-0.8882 -0.0683,-0.46118 -0.0683,-0.92236 v -2.04969 q 0,-0.46118 0.0683,-0.92236 0.0683,-0.46118 0.25622,-0.87112 0.20497,-0.42702 0.51242,-0.76863 0.32453,-0.3587 0.71739,-0.58075 0.40994,-0.23913 0.87112,-0.32453 0.46118,-0.0854 0.92236,-0.0854 0.4441,0 0.87112,0.0854 0.4441,0.0683 0.83696,0.25621 0.39285,0.18789 0.70031,0.49534 0.32453,0.30745 0.5295,0.70031 0.20497,0.37578 0.30746,0.81988 0.10248,0.42702 0.10248,0.85404 v 0.0342 h -1.89596 v -0.0171 q 0,-0.30746 -0.10249,-0.59783 -0.0854,-0.29037 -0.27329,-0.5295 -0.18789,-0.23913 -0.47826,-0.34162 -0.29037,-0.11956 -0.59783,-0.11956 -0.34161,0 -0.64907,0.1708 -0.30745,0.15373 -0.49534,0.4441 -0.17081,0.27329 -0.23913,0.61491 -0.0683,0.34162 -0.0683,0.68323 v 2.04969 q 0,0.34162 0.0683,0.68323 0.0683,0.34162 0.23913,0.63199 0.18789,0.27329 0.49534,0.4441 0.30746,0.15373 0.64907,0.15373 0.30746,0 0.59783,-0.10249 0.29037,-0.11956 0.47826,-0.35869 0.18789,-0.23913 0.27329,-0.52951 0.10249,-0.29037 0.10249,-0.59782 v -0.0171 h 1.89596 v 0.0342 q 0,0.42702 -0.10248,0.87112 -0.10249,0.42701 -0.30746,0.81987 -0.20497,0.37578 -0.5295,0.68323 -0.30746,0.30746 -0.70031,0.49534 -0.39286,0.18789 -0.83696,0.25622 -0.42702,0.0854 -0.87112,0.0854 z m 5.3292,-0.13665 v -12.55436 h 1.89596 v 5.07299 q 0.13665,-0.34162 0.34162,-0.63199 0.20497,-0.29037 0.47826,-0.49534 0.29037,-0.22205 0.63199,-0.30746 0.34161,-0.10248 0.70031,-0.10248 0.40994,0 0.8028,0.13664 0.39285,0.13665 0.68323,0.40994 0.30745,0.2733 0.49534,0.64907 0.18789,0.3587 0.29037,0.75156 0.11957,0.39285 0.15373,0.80279 0.0512,0.39286 0.0512,0.8028 v 5.46584 h -1.89597 v -5.46584 q 0,-0.22205 -0.0342,-0.4441 -0.0171,-0.22205 -0.0854,-0.42702 -0.0512,-0.22205 -0.17081,-0.40994 -0.10248,-0.18789 -0.27329,-0.34161 -0.15373,-0.15373 -0.37578,-0.22205 -0.20497,-0.0683 -0.42702,-0.0683 -0.22205,0 -0.4441,0.0683 -0.20497,0.0683 -0.37577,0.22205 -0.15373,0.15372 -0.2733,0.34161 -0.10248,0.18789 -0.1708,0.40994 -0.0512,0.20497 -0.0854,0.42702 -0.0171,0.22205 -0.0171,0.4441 v 5.46584 z"
         id="path254-2-7-1-2-7-1-7"
         style="-inkscape-font-specification:'Iosevka Nerd Font Mono, Bold';display:inline;fill:#ffffff;stroke-width:0.42702;filter:url(#filter761-1-1-9-5)"
         aria-label="bandwhich"
         inkscape:label="bandwhich-glow" />
    </g>
  </g>
</svg>
